<?xml version="1.0" standalone="no"?>
<!DOCTYPE svg PUBLIC "-//W3C//DTD SVG 20010904//EN"
 "http://www.w3.org/TR/2001/REC-SVG-20010904/DTD/svg10.dtd">
<svg version="1.0" xmlns="http://www.w3.org/2000/svg"
 width="1280.000000pt" height="1272.000000pt" viewBox="0 0 1280.000000 1272.000000"
 preserveAspectRatio="xMidYMid meet">
<g transform="translate(0.000000,1272.000000) scale(0.100000,-0.100000)"
fill="#000000" stroke="none">
<path d="M6115 12709 c-55 -5 -181 -16 -280 -24 -1199 -103 -2361 -551 -3315
-1279 -309 -235 -751 -651 -983 -925 -503 -592 -878 -1231 -1142 -1946 -189
-512 -316 -1083 -360 -1625 -8 -102 -20 -235 -25 -296 -13 -141 -13 -369 0
-504 5 -58 14 -170 20 -250 102 -1368 664 -2677 1600 -3725 123 -138 432 -442
570 -561 1049 -904 2340 -1443 3700 -1544 80 -6 195 -15 256 -20 143 -13 347
-13 504 0 394 32 502 43 660 66 891 128 1760 448 2512 927 394 251 719 510
1056 842 521 511 913 1047 1233 1685 426 849 639 1719 676 2755 6 153 1 242
-33 640 -104 1224 -591 2431 -1368 3395 -259 321 -613 679 -936 944 -987 813
-2235 1318 -3505 1421 -104 8 -237 20 -295 25 -122 12 -401 11 -545 -1z m-131
-48 c4 -5 -38 -19 -91 -31 -481 -107 -876 -281 -1239 -546 -1011 -738 -1485
-1968 -1223 -3177 250 -1150 1149 -2072 2311 -2368 265 -67 527 -99 822 -99
615 0 1312 -258 1835 -678 385 -309 662 -653 876 -1087 169 -343 258 -633 312
-1015 25 -177 25 -643 -1 -820 -111 -788 -471 -1466 -1055 -1987 -266 -237
-618 -454 -936 -577 -55 -21 -138 -54 -185 -73 -305 -124 -553 -163 -1032
-163 -359 0 -576 16 -923 66 -2046 300 -3829 1591 -4755 3443 -348 698 -549
1390 -636 2196 -21 203 -30 812 -15 1027 29 401 85 758 176 1120 423 1689
1534 3132 3069 3988 707 394 1507 655 2311 755 247 31 371 39 379 26z m811
-2070 c95 -26 240 -93 327 -152 199 -135 354 -370 409 -618 24 -109 25 -301 3
-408 -59 -286 -231 -528 -480 -674 -180 -106 -333 -143 -554 -136 -119 4 -161
9 -235 31 -357 106 -617 374 -711 731 -23 86 -27 120 -27 245 0 125 4 159 27
245 100 382 391 661 776 746 118 26 349 21 465 -10z"/>
<path d="M6240 4159 c-36 -6 -105 -24 -155 -40 -344 -115 -591 -399 -666 -764
-7 -33 -12 -118 -11 -190 0 -105 5 -149 26 -230 70 -273 259 -513 506 -639
199 -103 402 -136 615 -101 418 68 738 378 826 800 16 76 16 281 0 362 -74
384 -357 684 -739 784 -90 24 -301 33 -402 18z"/>
</g>
</svg>
